<?xml version="1.0" encoding="UTF-8"?>
<svg xmlns="http://www.w3.org/2000/svg" viewBox="0 0 300 300" width="300" height="300">
<path d="M293.41 108.5C294.46 111.77 294.5 114.89 293.84 118.41C293.68 119.28 292.97 119.92 292.94 120.83C292.9 121.71 293.47 122.08 293.68 122.85C294.54 126.05 293.51 128 291.87 130.5C294.47 133.37 293.1 136.7 291.13 139.5C291.46 140.55 292.51 141.46 292.71 142.51C293.04 144.33 292.07 147.79 291.31 149.5C292.46 151.1 291.33 154.58 291.15 156.59C290.52 163.6 287.63 169.67 286.87 176.5C286.15 177.23 284.79 177.65 284.32 178.53C283.42 180.25 285.15 181.75 284.96 183.49C284.81 184.87 283.6 185.44 283.03 186.55C281.37 189.76 283.58 189.61 280.04 193.5C281.36 197.62 277.03 201.17 275.23 204.4C272.72 208.9 277.16 210.18 270.3 215.5C270.07 219.24 268.27 217.98 266.38 220.23C265.53 221.25 265.51 222.94 264.51 224.02C263.63 224.97 262.24 224.75 261.37 225.57C260.65 226.24 260.65 227.31 259.64 227.8C257.66 228.78 255.57 227.5 253.7 229.19C252.68 230.12 253.15 231.66 252.1 232.61C251.47 233.19 245.33 236.82 244.52 237.08C243.25 237.48 241.71 236.71 240.51 237.32C238.85 238.17 238.08 240.12 236 240.83C234.32 241.41 232.85 240.02 231.26 240.75C229.38 241.61 229.11 244.31 226.91 245.41C225.1 246.31 222.78 247.9 220.81 248.24C219.72 248.43 218.55 247.96 217.52 248.3C215.96 248.8 213.02 250.94 211.28 251.79C207.59 253.6 203.93 254.69 200.15 255.67C199.31 255.88 198.41 255.54 197.59 255.81C196.6 256.13 196.31 257.4 195.16 257.64C193.92 257.9 192.74 257.34 191.5 257.4C188.98 260.08 187.58 258.49 184.5 258.07C183.43 258.67 183.08 259.88 181.99 260.48C181.64 260.67 174.22 262.62 173.5 262.7C171.98 262.87 170.66 261.9 169.21 262.09C164.6 262.69 165.96 265.55 159.5 262.55C158.5 263.16 157.98 264.28 156.96 264.79C153.47 266.54 148.59 266.29 144.83 266.24C143.48 266.22 142.21 265.22 140.85 265.4C139.13 265.62 138.5 267.36 136.52 267.22C133.79 267.03 131.36 264.81 129.5 264.76C126.83 264.69 124.16 266.53 121.5 266.64C119.81 266.7 118.96 265.34 117.48 265.05C112.33 264.07 110.67 265.1 105.5 262.43C101.8 264.1 95.77 262.62 92.5 260.36C90.53 260.96 86.28 259.87 84.61 258.55C83.82 257.93 83.37 256.49 82.4 256.15C80.64 255.54 78.86 256.54 77.15 255.34C75.87 254.45 75.62 252.65 74.42 251.75C71.1 249.26 64.49 247.96 60.52 245.67C58.37 244.43 54.79 241.5 53.3 239.53C52.79 238.86 52.8 237.89 52.21 237.3C51.16 236.23 49.25 236.37 48.09 235.41C47.07 234.57 47.05 233.21 46.21 232.29C45.7 231.73 45.01 231.76 44.37 231.45C42.43 230.5 43.13 228.84 42.59 227.26C42.1 225.81 40.09 225.69 39.13 224.7C38.16 223.71 38.31 222.33 37.83 221.14C36.83 220.54 35.55 220.31 34.71 219.45C33.75 218.48 34.14 217.34 33.58 216.26C32.08 213.36 29.12 211.11 27.52 208.33C26.66 206.83 26.56 204.95 25.77 203.41C24.57 201.03 23.82 197.6 22.65 195.55C22.1 194.59 20.85 194.23 20.41 193.11C19.65 191.21 20.93 189.42 20.02 187.5C19 185.34 16.89 183.64 16.15 181.38C15.63 179.8 16.59 178.26 16.09 176.78C15.46 174.93 14.03 173.42 13.42 171.45C12.89 169.73 13.54 167.9 12.88 166.26C12.1 164.3 10.58 162.74 10.29 160.5C9.93 157.81 10.99 155.07 11.22 152.48C11.54 148.9 10.14 150.41 11.71 145.5C11.11 144.37 10.24 143.98 9.47 143.03C7.96 141.18 9.76 139.39 9.95 137.5C7.83 134.53 9.79 132.18 10.16 128.95C10.82 123.19 8.8 118.07 10.89 112.5C9.76 110.06 10.17 106.47 12.1 104.5C12.05 101.13 8.92 98.93 9.05 95.83C9.23 91.81 12.11 85.44 14.98 82.48C16.08 81.36 17.82 81.27 18.85 80.02C20 78.6 19.09 76.93 19.95 75.45C20.93 73.78 23.22 73.57 24.69 72.5C24.84 71.32 24.76 69.95 25.42 68.91C26.11 67.82 32.48 62.87 33.79 62.28C34.68 61.87 35.77 62.2 36.61 61.77C38.24 60.94 37.6 58.21 39.34 57.17C42.75 55.13 47.84 52.99 51.6 51.46C52.57 51.06 53.92 51.21 54.77 50.61C56.87 49.13 57.92 47.06 60.51 45.99C62.11 45.34 64.12 46.5 65.52 45.71C67.39 44.66 68.17 42.48 70.28 41.46C72.89 40.21 75.96 39.78 78.44 38.6C79.14 38.26 79.53 37.44 80.24 37.07C81.36 36.47 82.6 36.92 83.74 36.57C84.84 36.24 85.65 35.24 86.73 34.87C87.74 34.52 88.78 34.92 89.77 34.62C90.92 34.28 91.53 32.97 92.59 32.44C94.27 31.61 96.34 32.32 98.09 31.57C99.43 31 99.98 29.4 101.36 28.87C102.16 28.57 102.97 28.77 103.77 28.59C105.03 28.33 105.68 27.07 106.97 26.82C108.15 26.6 109.29 27.3 110.44 26.92C111.3 26.63 111.8 25.77 112.74 25.53C113.86 25.24 115.04 25.76 116.18 25.42C117.61 24.99 118.67 23.65 120.18 23.38C121.74 23.1 123 24.12 124.47 23.9C125.74 23.72 126.38 22.57 127.83 22.67C129.2 22.76 130.05 23.93 131.49 23.7C134.51 23.23 137.28 21.54 140.17 21.04C142.03 20.71 143.71 21.55 145.5 21.46C147.08 21.38 148.9 20.59 150.49 20.31C151.98 20.05 153.09 18.76 154.61 18.5C156.76 18.14 158.47 19.76 160.48 19.59C162.24 19.43 163.29 17.64 165.16 17.76C166.98 17.89 167.71 19.76 169.5 19.97C173.36 17.26 171.94 17.27 176.83 18.14C178.03 18.35 179.25 17.84 180.48 18.07C181.48 18.26 182.15 19.3 183.17 19.34C184.19 19.39 185.1 18.62 186.17 18.59C188.97 18.53 191.17 19.45 193.83 19.74C195.51 19.93 196.94 19.09 198.5 19.17C200.57 19.28 202.19 21.21 204.4 21.47C206.06 21.67 207.49 20.4 209.16 21C210.48 21.48 210.94 22.92 212.35 23.15C214.2 23.44 215.58 21.55 217.44 21.83C218.62 22.01 219.37 23.17 220.51 23.35C222.65 23.71 224.88 22.75 227.09 23.45C228.24 23.81 229 25.26 230.17 25.37C231.55 25.5 232.64 24.45 234.12 24.77C235.62 25.09 236.04 26.61 237.31 27.19C238.44 27.7 239.9 27.12 241.13 27.42C242.38 27.72 243.13 28.89 244.29 29.19C245.38 29.48 246.69 28.81 247.83 28.86C249.98 28.97 253.11 29.89 255.06 30.79C256.69 31.54 256.54 33.6 258.03 34.14C259.99 34.86 262.1 33.46 264.05 34.46C268.53 36.77 271.15 41.51 274.87 44.63C276.51 46.01 278.99 45.14 280.45 47.04C282.41 49.61 284.06 52.87 285.28 55.87C285.69 56.9 285.49 58.16 286.07 59.1C286.95 60.58 289.4 60.48 290.43 62.07C292.06 64.62 290.96 69.29 291.1 72.17C291.27 75.6 294.08 78.99 294.8 82.38C295.04 83.5 294.34 84.41 294.36 85.5C294.39 87.01 295.61 88.33 295.75 89.83C295.86 91.1 295.04 91.98 295 93.17C294.87 96.59 295.53 96.85 294.8 100.93C294.18 104.43 297.23 105.08 293.41 108.5ZM178.5 31.25C174.27 34.57 172.16 31.18 168.46 30.82C166.87 30.66 165.97 32.44 164.5 32.71C162.94 33.01 161.7 31.66 160.33 31.85C158.77 32.07 158.15 34.07 156.49 34.33C154.64 34.62 153.57 32.81 151.83 32.95C150.18 33.08 149.21 35.14 147.5 35.37C146 35.57 144.65 34.55 143.21 34.74C141.48 34.97 140.49 36.79 138.54 36.55C137.2 36.38 136.53 34.95 135.17 34.95C132.89 34.96 130.75 37.22 128.49 37.66C126.27 38.1 123.93 37.65 121.85 38.05C119.73 38.46 117.92 40.18 115.67 40.49C114.47 40.66 113.43 39.64 112.26 39.81C110.94 40.01 110.43 41.58 109.15 41.93C107.4 42.4 105.41 43.59 103.68 43.83C101.89 44.08 100.17 43.21 98.37 43.87C96.13 44.69 92.27 46.44 90.39 47.9C89.4 48.66 89.04 49.79 87.77 50.27C85.56 51.11 82.98 49.95 80.75 50.88C78.61 51.78 77.42 54.74 74.9 55.75C67.72 58.61 60.88 61.08 54.27 65.11C53.43 65.62 52.37 65.52 51.58 66.08C50.52 66.85 50.48 68.61 49.29 69.46C47.64 70.66 45.21 70.11 43.56 71.38C42.2 72.43 42.37 74.45 40.93 75.43C36.42 78.49 30.88 82.05 27.33 86.51C26.06 88.1 26.92 89.76 26.4 91.52C26.01 92.84 24.64 93.21 24.19 94.34C23.01 97.32 23.11 100.76 21.28 103.5C22.66 105.72 20.64 106.4 20.83 108.45C21.13 111.8 22.32 115.31 21.94 118.83C21.73 120.85 19.92 122.61 19.9 124.5C19.87 127.94 22.65 130.03 21.35 133.5C23.33 136.6 23.32 139.47 21.23 142.5C22.12 147.09 23.09 151.26 23.97 155.83C24.67 159.48 26.91 160.69 24.69 164.5C25.24 167.67 28.27 170.7 29.39 173.82C30.33 176.45 30.51 179.51 31.64 182.17C32.55 184.34 34.24 186.24 35.06 188.49C35.89 190.81 36.15 193.52 37.11 195.74C38.03 197.9 41.23 200.89 41.79 202.38C42.29 203.7 41.46 205.17 42.04 206.46C43.52 209.73 47.89 211 49.35 214.51C49.93 215.9 49.09 217.1 49.28 218.5C50.83 219.47 52.86 218.98 54.32 220.17C57.17 222.47 56.68 224.63 58.29 226.54C59.83 228.35 62.74 228.85 64.62 230.22C65.95 231.18 66.39 232.58 67.48 233.69C69.31 235.57 75.95 240.43 78.24 241.61C79.28 242.15 80.52 241.56 81.61 241.89C82.76 242.23 83.16 243.52 84.26 243.88C87.02 244.76 90.05 244.84 92.67 246.17C94.17 246.93 95.1 248.25 96.5 249.1C101.39 247.98 100.52 248.17 104.5 251.08C105.63 251.04 106.7 250.56 107.83 250.63C110.44 250.79 112.92 252.49 115.5 252.58C117.83 252.66 120.25 251.62 122.5 251.9C124.04 252.09 124.76 253.75 126.2 253.9C128.45 254.15 130.94 252.46 133.21 252.49C135.11 252.51 138 252.48 139.83 252.98C141.19 253.34 141.98 254.22 143.5 254.37C144.42 253.64 145.28 252.52 146.45 252.22C148.78 251.63 152.44 252.2 154.83 252.3C156.76 252.38 158.48 251.45 160.31 251.16C162.7 250.79 164.98 251.16 167.75 250.54C171.06 249.8 173.95 246.99 177.5 248.74C181.78 246.69 180.86 246.88 185.5 246.89C188.06 244.24 189.39 244.83 192.82 244.02C194.13 243.72 196.53 243.06 197.73 242.55C198.79 242.09 199.41 240.87 200.59 240.45C203.22 239.53 206.58 239.97 209.09 238.92C210.39 238.37 211.2 236.96 212.59 236.45C215.84 235.26 219.13 234.17 222.43 232.91C223.47 232.52 224.18 231.44 225.24 231.08C227.23 230.42 229.48 230.24 231.36 229.18C233.39 228.04 234.91 226.3 237.16 225.31C238.36 224.78 239.77 224.98 240.92 224.42C241.95 223.92 242.24 222.65 243.23 222.05C244.99 220.97 246.95 222.83 248.47 221.66C249.64 220.77 249.42 218.97 250.47 217.96C251.63 216.83 253.56 217.03 254.76 215.94C255.49 215.28 255.55 214.14 256.28 213.44C258.08 211.71 259.84 210.34 261.83 208.8C262.46 206.36 263.3 203.68 264.66 201.49C265.58 199.99 267.17 198.66 267.83 197.01C268.26 195.96 267.68 194.9 268.37 193.87C268.97 192.98 270.02 192.4 270.7 191.5C268.93 188.27 271.43 187.84 272.32 185.16C272.74 183.91 272.59 182.55 273.2 181.36C274.26 179.27 276.45 177.37 277.23 175.08C277.64 173.84 277 172.56 277.54 171.36C278.26 169.75 280.19 168.99 280.79 167.26C281.53 165.14 280.04 163.67 280.16 161.75C280.38 158.63 281.79 155.05 281.95 151.83C282.1 148.62 280.74 144.15 282.97 141.5C281.76 138.8 282.87 137.19 282.94 134.5C282.96 133.68 282.31 133 282.31 132.17C282.32 131.32 282.93 130.72 282.85 129.85C282.77 129 282.1 128.4 282.01 127.5C281.74 124.76 282.56 122.98 283.2 120.5C282.12 118.45 283.36 117.47 282.89 115.56C282.71 114.81 282.15 114.31 282.13 113.49C282.1 112.31 283.26 111.65 283.22 110.51C283.1 106.85 282.1 99.51 284.07 96.5C283.75 95.3 282.75 94.61 282.38 93.45C281.67 91.21 282.12 87.64 282.86 85.5C280.03 80.9 282.27 82.66 281.86 79.26C281.56 76.82 280.55 73.61 279.91 71.24C279.54 69.89 277.58 69.25 276.99 67.84C276.42 66.48 276.42 64.78 275.67 63.52C274.05 60.82 271.5 58.5 269.91 55.92C269.1 54.59 269.15 53.04 267.9 51.93C266.87 51.03 262.39 50.29 260.74 49.45C258.97 48.54 258.23 46.81 256.75 45.74C255.88 45.11 254.59 45.38 253.63 44.85C252.79 44.38 252.37 43.32 251.48 42.97C248.58 41.83 245.12 41.97 242.18 41.3C240.99 41.03 240.36 39.76 239.17 39.59C237.62 39.38 236.06 40.19 234.49 39.74C233.66 39.5 233.16 38.77 232.4 38.49C230.78 37.91 228.95 38.29 227.25 37.57C225.68 36.91 224.23 35.14 222.5 35.02C220.35 34.87 218.65 36.88 216.21 36.56C214.59 36.35 213.68 34.89 212.17 34.65C210.55 34.4 208.97 35.44 207.38 34.78C205.97 34.2 205.36 32.37 203.8 32.11C201.86 31.79 201.24 33.45 199.48 33.55C197.7 33.65 196.79 31.71 195.17 31.58C191.02 31.26 190.3 33.96 185.5 32.06C182.45 33.75 181.32 32.06 178.5 31.25ZM208.02 88.6C206.33 89.38 205.02 89.57 203.3 90.16C202.01 90.6 201.49 91.92 200.44 92.62C199.31 93.39 193.76 95.33 191.88 96.35C189.78 96.44 188.36 95.1 186.5 95.09C185.15 95.09 184.41 95.68 183.04 95.14C181.85 94.67 181.05 93.24 179.82 93C178.29 92.71 176.95 93.91 175.4 93.44C172.49 92.57 173.04 88.56 169 89.17C168.44 90.24 168.4 91.54 167.82 92.65C166.27 95.57 159.76 102.3 156.78 103.6C153.02 105.24 144.69 105.41 140.51 105.74C137.08 106.02 133.65 108.57 130.19 108.23C127.94 108.01 126.78 105.65 124.76 105.11C123.14 104.68 121.14 103.83 119.5 103.63C118.39 103.49 117.35 103.93 116.26 103.57C114.96 103.13 114.56 101.54 113.42 101.12C112.28 100.71 110.98 101.13 109.82 100.72C108.34 100.18 105.14 96.71 104.56 95.25C103.87 93.55 105.05 91.95 104.83 90.24C104.04 89.62 102.88 89.45 102.29 88.54C101.14 86.75 100.37 81.32 101.15 79.29C101.68 77.89 103.66 76.27 103.73 74.83C103.79 73.31 102.82 72.04 103.19 70.38C103.95 67.02 106.53 64.23 108.52 61.69C114.96 53.49 124.13 44.96 135.5 46.93C142.52 43.13 138.68 46.79 143.51 47.3C145.19 47.48 146.84 46.49 148.52 46.9C150.5 47.39 151.09 49.55 152.74 50.45C154.12 51.19 155.76 50.28 157.22 50.92C158.65 51.56 159.31 53.27 160.5 54.27C164.96 52.5 162.4 49.86 163.86 47.36C164.75 45.83 166.3 45.44 167.6 44.43C172.02 40.99 170.97 39.49 177.5 39.33C183.61 33.55 192.92 39.88 199.25 41.88C203.74 43.3 207.02 43.11 209.89 47.27C211.53 49.64 211.37 53.05 213.05 55.44C214.03 56.83 216.15 56.72 216.87 58.6C218.3 62.39 218.27 73.53 216.15 76.98C215.41 78.18 213.85 78.23 213.1 79.27C212.16 80.6 212.77 82.97 212.07 84.55C211.33 86.24 209.25 87.26 208.02 88.6ZM194.5 54.1C194.24 55.21 194.84 56.04 194.8 57.17C194.76 58.39 193.82 59.28 193.72 60.5C193.56 62.57 194.27 65.23 193.33 67.16C192.12 69.64 189.25 69.09 187.17 69.99C185.12 70.88 185.01 73.98 182.69 74.84C180.12 75.79 177.79 73.9 175.17 74.5C176.06 75.64 176.31 77.46 177.48 78.36C177.71 78.54 189.26 81.94 189.83 81.92C191.2 81.88 192.09 80.29 193.55 80.13C196.6 79.81 198.02 82.26 200.77 78.61C203.86 74.49 204.03 65.03 201.48 60.7C200.91 59.74 199.89 59.14 199.2 58.28C197.56 56.24 197.25 54.72 194.5 54.1ZM146.5 64.8C145.49 67.25 146.44 70.81 145.51 72.35C144.85 73.45 143.45 73.35 142.77 74.28C142.09 75.2 142.46 76.54 141.63 77.46C141.6 77.49 136.44 80.83 136.4 80.84C135.31 81.12 134.3 80.46 133.23 80.72C132.17 80.98 131.41 82.13 130.47 82.66C128.93 83.53 124.98 83.86 123.27 83.52C119.29 82.72 117.41 79.12 114.5 76.91C113.55 78.12 114.08 79.12 114.31 80.51C114.54 81.87 114.2 83.35 114.5 84.68C114.92 86.56 118.91 87.9 120.21 89.29C121.23 90.37 121.94 92.6 123.37 93.12C124.83 93.66 125.76 92.37 127.17 92.38C128.81 92.4 130.18 93.82 131.5 94.64C136.81 92.18 135.89 94.65 139.79 93.9C147.31 92.44 154.94 86.07 156.5 78.38C154.91 75.2 151.46 64.33 146.5 64.8ZM243.25 80.8C246.28 80.39 246.5 83.89 247.3 85.85C248.1 87.83 249.79 89.07 249.5 91.4C249.22 93.65 242.68 99.91 240.51 99.84C235.93 99.68 234.1 86.99 235.64 83.81C236.29 82.45 241.7 81.01 243.25 80.8ZM74.33 99.92C72.81 101.86 70.7 101.1 68.7 101.86C66.08 102.86 64.28 104.67 62.24 106.3C60.26 103.84 56.18 99.83 59.55 96.38C60.55 95.36 61.87 95.51 62.92 94.74C64.97 93.24 65.86 89.7 69.49 91.3C72.24 92.51 71.35 94.18 72.35 96.45C72.91 97.74 73.87 98.54 74.33 99.92ZM249.43 104.5C250.73 103.57 253.2 101.52 254.83 101.69C255.65 101.78 259.51 104.87 259.83 105.64C260.24 106.65 259.14 113.76 258.49 114.32C254.21 117.96 254.02 115.1 251.63 113.21C250.7 112.47 249.55 112.78 249 111.47C248.97 111.42 249.38 104.88 249.43 104.5ZM231.68 103.03C235.54 103.11 242.55 102.6 243.62 107.85C244.75 113.37 238.59 117.71 234.5 113.55C229.66 113.79 230.69 112.19 230.56 108.52C230.51 106.95 229.91 105.74 230.3 104.07C230.78 103.77 231.26 103.47 231.74 103.17C231.72 103.12 231.7 103.07 231.68 103.03ZM58.65 113.29C60.03 115.67 59.12 117.07 58.62 119.54C57.43 121.05 56.7 123.19 54.69 123.84C51.51 124.88 49.12 122.75 50.72 119.5C50.19 118.55 49.13 117.63 49.14 116.5C49.14 115.51 53.47 110.51 54.5 110.33C55.88 111.31 57.26 112.3 58.65 113.29ZM109.66 111.96C113.13 116.81 115.65 119.66 112.25 125.5C114.52 128.9 112.03 130.81 111 133.84C110.6 135.02 111.05 136.28 110.6 137.45C109.57 140.14 107.56 142.3 106.26 144.77C105.58 146.06 105.78 147.39 104.76 148.6C103 150.68 95.39 156.43 95.07 157.5C96.21 159.53 97.36 161.55 98.5 163.58C100.55 164.72 104.47 171.27 105.5 173.59C108.7 174.34 111.05 178.28 113.22 180.62C113.72 181.15 117.98 185.29 118.33 185.49C119.03 185.9 119.93 185.77 120.63 186.21C122.11 187.14 123.11 188.78 124.37 189.79C125.9 191.02 128.06 191.21 129.59 192.25C130.69 192.99 131.28 194.41 132.58 194.88C134.37 195.54 136.57 195.5 138.24 196.22C139.6 196.81 140.04 198.68 141.51 199.05C146.03 200.2 150.43 200.7 154.5 202.69C156.84 201.71 157.61 202.64 159.5 203.93C162.16 203.62 164.71 202.69 167.49 202.84C169.28 202.94 170.79 204.36 172.69 204.16C174.03 204.03 174.55 202.62 175.84 202.35C178.53 201.77 181.85 201.89 184.44 200.92C185.32 200.59 185.67 199.48 186.56 199.07C190.44 197.28 194.14 196.84 197.4 193.56C198.25 192.71 197.99 191.45 198.65 190.49C199.5 189.28 201.06 188.58 201.85 187.37C203.55 184.77 205.59 181.24 206.9 178.42C207.35 177.43 206.98 176.35 207.58 175.4C208.14 174.5 209.16 174.22 209.85 173.5C209.39 168.65 208.56 170.14 211.98 166.5C211.76 160.37 208.74 162.12 212.82 155.5C212.45 153.92 211.52 152.5 211.2 150.89C210.91 149.38 211.5 147.81 211.16 146.33C210.87 145.06 209.63 144.55 209.06 143.44C208.16 141.67 208.44 139.41 208 137.5C206.18 136.09 205.22 135.99 205.17 133.4C203.14 131.75 202.27 131.16 201.68 128.5C200.85 127.5 200.03 126.5 199.2 125.5C199.94 124.83 200.68 124.17 201.43 123.5C200.23 121.21 199.61 119.47 199.96 116.82C204.03 115.68 208.1 114.54 212.17 113.41C212.43 113.77 212.7 114.14 212.96 114.51C212.81 116.4 215.52 118.68 216.78 120.06C218.43 121.87 222.9 124.8 225.48 124.61C227.04 124.49 231.11 122.33 233.83 122.43C235.18 122.48 237.51 123.8 238.83 124.27C239.21 126.04 240.49 128.78 240.37 130.5C240.26 132.1 238.81 132.43 238.02 133.54C233.29 140.12 235.49 135.37 230.78 137.24C229.03 137.94 228.02 139.82 226.05 140.19C224.45 140.48 223.09 139.83 221.5 140.43C221.18 141.77 222.06 142.29 222.19 143.56C222.43 145.81 221.21 148.22 221.5 150.43C221.93 153.86 224.22 157.25 222.36 160.5C222.96 161.86 222.38 170.08 221.61 171.43C221.14 172.25 220.28 172.84 219.64 173.5C220.62 179.73 219 179.82 216.11 184.5C216.68 187.37 215.78 187.87 213.79 189.5C212.8 195.63 210.31 192.57 209.18 195.33C208.67 196.58 209.56 198.17 208.46 199.29C206.87 200.89 204.21 199.42 202.47 201.31C199.96 204.03 196.57 209.88 192.79 210.93C191.69 211.24 190.62 210.85 189.54 211.09C186.95 211.65 187.84 212.73 184.33 212.17C181.79 213.39 181.93 215.65 178.5 214.13C176.08 215.37 174.85 215.68 172.5 214.11C166.16 218.09 167.2 214.59 162.5 214.05C160.1 215.59 154.49 214.48 152.5 212.41C147.4 213.5 147.66 210.64 143.22 209.24C141.44 208.68 139.41 209.41 137.59 208.86C135.48 208.22 134.36 206.28 132.6 205.24C130.47 203.97 127.3 203.58 125.37 202.13C123.97 201.09 123.68 199.35 122.61 198.23C119.01 194.44 115.2 197.98 113.83 191.36C112.76 190.81 111.42 191.04 110.4 190.42C108.66 189.39 109.1 187.18 107.84 185.83C103.56 185.29 100.33 179.41 99.46 175.5C97.45 174.18 95.99 172.65 95.12 170.42C94.89 169.81 95.08 169.06 94.7 168.5C93.96 167.43 92.82 166.92 92.22 165.61C91.14 163.25 92.84 162.18 90.5 160.24C88.75 161.04 87.22 160.43 85.51 160.95C79.83 162.67 82.92 164.77 76.5 161.09C67.45 162.88 72.37 160.93 66.47 158.34C63.9 157.21 62.6 158.71 59.55 155.63C57.92 153.97 57.38 151.67 55.85 149.99C54.78 148.82 52.91 148.44 52.01 147.15C49.42 143.41 53.76 137.17 57.83 137.35C58.61 138.73 59.4 140.12 60.18 141.5C63.06 143.13 64.83 145.93 67.44 148.05C68.63 149.02 70.1 148.71 71.36 149.48C72.37 150.09 73.4 151.67 74.54 151.91C77.13 152.44 78.4 149.91 80.44 149.24C82.17 148.67 84.07 149.15 85.83 148.53C87.21 145.16 89.69 143.81 91.72 140.89C92.49 139.78 92.5 138.34 93.43 137.26C94.34 136.19 96.08 135.81 96.85 134.69C97.84 133.26 97.02 131.22 97.83 129.66C98.87 127.64 100.95 127.25 100.92 124.7C101.7 122.86 102.49 121.01 103.28 119.17C107.81 116.62 106.48 116.77 108.5 112.24C108.89 112.14 109.27 112.05 109.66 111.96Z" fill="#378288" fill-rule="evenodd" stroke="#378288" stroke-width="0.25" stroke-linejoin="round"/>
<path d="M208.02 88.6C209.65 89.97 211.62 88.76 213.44 89.41C214.57 89.82 215.56 90.97 216.5 91.71C221.7 89.39 221.91 89.91 226.53 92.3C227.71 92.91 229.06 93.16 229.73 94.45C230.42 95.8 231.55 98.59 231.81 100.08C231.99 101.16 231.23 102 231.68 103.03C231.7 103.07 231.72 103.12 231.74 103.17C231.26 103.47 230.78 103.77 230.3 104.07C229.24 103.3 228.22 103.82 227.25 104.5C225.6 110.61 223.1 111.99 217.26 113.8C215.84 114.23 214.02 113.59 212.96 114.51C212.7 114.14 212.43 113.77 212.17 113.41C208.1 114.54 204.03 115.68 199.96 116.82C197.46 114 194.76 116.3 191.97 114.52C190.45 113.56 190.71 111.93 190.05 110.49C188.63 107.39 186.49 105.46 188.18 101.67C189.17 99.46 191.36 99.02 191.88 96.35C193.76 95.33 199.31 93.39 200.44 92.62C201.49 91.92 202.01 90.6 203.3 90.16C205.02 89.57 206.33 89.38 208.02 88.6ZM109.66 111.96C109.27 112.05 108.89 112.14 108.5 112.24C106.48 116.77 107.81 116.62 103.28 119.17C102.49 121.01 101.7 122.86 100.92 124.7C99.1 122.18 95.58 126.8 93.89 127.73C91.81 128.88 90.75 128.63 88.51 129C87.66 129.15 87.01 130.08 86.18 130.38C83.75 131.26 79.73 130.24 77.5 129.12C71.65 130.72 74.02 128.46 70.19 126.29C68.13 125.13 65.51 126.11 63.5 125.02C62.24 124.33 60.88 120.92 59.63 119.5C59.3 119.51 58.96 119.53 58.62 119.54C59.12 117.07 60.03 115.67 58.65 113.29C59.52 112.21 59.28 110.74 60.08 109.58C60.75 108.59 62.05 108.45 62.77 107.5C62.59 107.1 62.42 106.7 62.24 106.3C64.28 104.67 66.08 102.86 68.7 101.86C70.7 101.1 72.81 101.86 74.33 99.92C76.99 101.23 79.5 99.48 82.5 99.48C83.56 99.48 84.7 100.36 85.7 100.17C87.48 99.82 88.16 97.63 90.17 97.55C91.99 97.47 93.32 98.72 94.97 99.18C97.76 99.94 102.51 100.04 104.42 102.75C105.39 104.12 105.23 105.98 106.14 107.37C107.29 109.11 108.78 109.98 109.66 111.96Z" fill="#e77066" fill-rule="evenodd" stroke="#e77066" stroke-width="0.25" stroke-linejoin="round"/>
</svg>